<svg width="60" height="60" viewBox="0 0 60 60" fill="none" xmlns="http://www.w3.org/2000/svg">
<g clip-path="url(#clip0_245_6327)">
<path d="M33.0642 11.3339C33.0642 9.64426 31.6896 8.26953 29.9999 8.26953C28.3102 8.26953 26.9355 9.64414 26.9355 11.3339C26.9355 13.0236 28.3102 14.3982 29.9999 14.3982C31.6896 14.3982 33.0642 13.0236 33.0642 11.3339ZM28.6934 11.3339C28.6934 10.6135 29.2794 10.0273 29.9999 10.0273C30.7204 10.0273 31.3064 10.6134 31.3064 11.3339C31.3064 12.0543 30.7204 12.6404 29.9999 12.6404C29.2794 12.6404 28.6934 12.0543 28.6934 11.3339Z" fill="#00652D"/>
<path d="M41.63 17.421C42.8249 16.2263 42.8249 14.2822 41.63 13.0875C40.4352 11.8927 38.4912 11.8927 37.2964 13.0875C36.1017 14.2823 36.1017 16.2263 37.2964 17.421C37.8939 18.0185 38.6785 18.3171 39.4632 18.3171C40.2479 18.3171 41.0327 18.0185 41.63 17.421ZM38.5394 14.3303C38.7941 14.0757 39.1287 13.9483 39.4632 13.9483C39.7978 13.9483 40.1324 14.0757 40.3871 14.3303C40.8965 14.8398 40.8965 15.6686 40.3871 16.1782C39.8777 16.6876 39.0489 16.6876 38.5394 16.1782C38.03 15.6686 38.03 14.8398 38.5394 14.3303Z" fill="#00652D"/>
<path d="M46.447 24.7167C46.447 23.0271 45.0724 21.6523 43.3827 21.6523C41.693 21.6523 40.3184 23.027 40.3184 24.7167C40.3184 26.4064 41.693 27.781 43.3827 27.781C45.0724 27.781 46.447 26.4064 46.447 24.7167ZM42.0762 24.7167C42.0762 23.9963 42.6622 23.4102 43.3827 23.4102C44.1032 23.4102 44.6892 23.9962 44.6892 24.7167C44.6892 25.4371 44.1032 26.0232 43.3827 26.0232C42.6622 26.0232 42.0762 25.4371 42.0762 24.7167Z" fill="#00652D"/>
<path d="M37.2964 36.3444C37.8939 36.9418 38.6785 37.2404 39.4632 37.2404C40.2479 37.2404 41.0327 36.9417 41.63 36.3444C42.2088 35.7656 42.5276 34.9962 42.5276 34.1776C42.5276 33.3592 42.2088 32.5896 41.63 32.0108C41.0512 31.432 40.2817 31.1133 39.4632 31.1133C38.6447 31.1133 37.8751 31.432 37.2964 32.0108C36.1017 33.2055 36.1017 35.1496 37.2964 36.3444ZM38.5394 33.2537C38.7861 33.0069 39.1142 32.871 39.4632 32.871C39.8122 32.871 40.1402 33.0069 40.387 33.2537C40.6338 33.5004 40.7698 33.8285 40.7698 34.1775C40.7698 34.5265 40.6338 34.8546 40.387 35.1014C39.8777 35.6108 39.0487 35.6109 38.5393 35.1014C38.03 34.592 38.03 33.7631 38.5394 33.2537Z" fill="#00652D"/>
<path d="M26.9355 38.0975C26.9355 39.7872 28.3102 41.1619 29.9999 41.1619C31.6896 41.1619 33.0642 39.7873 33.0642 38.0975C33.0642 36.4078 31.6896 35.0332 29.9999 35.0332C28.3102 35.0332 26.9355 36.4079 26.9355 38.0975ZM31.3064 38.0975C31.3064 38.8179 30.7204 39.4041 29.9999 39.4041C29.2794 39.4041 28.6934 38.818 28.6934 38.0975C28.6934 37.3771 29.2794 36.791 29.9999 36.791C30.7204 36.791 31.3064 37.3772 31.3064 38.0975Z" fill="#00652D"/>
<path d="M20.5373 37.2404C21.322 37.2404 22.1068 36.9417 22.7042 36.3444C23.899 35.1496 23.899 33.2055 22.7042 32.0108C22.1255 31.432 21.3559 31.1133 20.5374 31.1133C19.7189 31.1133 18.9493 31.432 18.3707 32.0108C17.1759 33.2055 17.1759 35.1496 18.3707 36.3444C18.968 36.9417 19.7526 37.2404 20.5373 37.2404ZM19.6135 33.2536C19.8603 33.0068 20.1885 32.8709 20.5374 32.8709C20.8864 32.8709 21.2144 33.0068 21.4612 33.2536C21.9707 33.763 21.9707 34.5919 21.4612 35.1013C20.9518 35.6107 20.123 35.6107 19.6135 35.1013C19.1041 34.5919 19.1041 33.763 19.6135 33.2536Z" fill="#00652D"/>
<path d="M13.5547 24.7167C13.5547 26.4063 14.9293 27.781 16.619 27.781C18.3088 27.781 19.6834 26.4064 19.6834 24.7167C19.6834 23.027 18.3088 21.6523 16.619 21.6523C14.9293 21.6523 13.5547 23.0271 13.5547 24.7167ZM17.9255 24.7167C17.9255 25.437 17.3395 26.0232 16.619 26.0232C15.8986 26.0232 15.3125 25.4371 15.3125 24.7167C15.3125 23.9962 15.8986 23.4102 16.619 23.4102C17.3395 23.4102 17.9255 23.9963 17.9255 24.7167Z" fill="#00652D"/>
<path d="M22.7042 17.421C23.8989 16.2262 23.8989 14.2822 22.7042 13.0875C21.5094 11.8927 19.5654 11.8927 18.3707 13.0875C17.1759 14.2823 17.1759 16.2263 18.3707 17.421C18.9681 18.0185 19.7528 18.3171 20.5374 18.3171C21.322 18.3171 22.1068 18.0185 22.7042 17.421ZM19.6135 14.3303C19.8682 14.0757 20.2028 13.9483 20.5373 13.9483C20.8719 13.9483 21.2065 14.0757 21.4611 14.3303C21.9705 14.8398 21.9705 15.6686 21.4611 16.1782C20.9517 16.6876 20.1228 16.6876 19.6134 16.1782C19.1041 15.6686 19.1041 14.8398 19.6135 14.3303Z" fill="#00652D"/>
<path d="M44.8682 36.9385C45.2567 37.2294 45.8077 37.1499 46.0984 36.7613C48.7124 33.2678 50.094 29.1087 50.094 24.7336C50.094 13.6532 41.0795 4.63867 29.9991 4.63867C18.9187 4.63867 9.9043 13.6532 9.9043 24.7336C9.9043 35.814 18.9188 44.8286 29.9992 44.8286C34.865 44.8286 39.5598 43.0669 43.2191 39.8681C43.5846 39.5486 43.6219 38.9934 43.3023 38.6279C42.9828 38.2624 42.4275 38.2252 42.0621 38.5447C38.7235 41.4633 34.4395 43.0708 29.9992 43.0708C19.8881 43.0708 11.6621 34.8448 11.6621 24.7336C11.6621 14.6225 19.8881 6.39649 29.9992 6.39649C40.1103 6.39649 48.3363 14.6225 48.3363 24.7336C48.3363 28.7261 47.0759 32.5211 44.6911 35.7083C44.4003 36.0968 44.4796 36.6476 44.8682 36.9385Z" fill="#00652D"/>
<path d="M37.6016 24.7335C37.6016 20.5425 34.192 17.1328 30.0011 17.1328C25.8101 17.1328 22.4004 20.5425 22.4004 24.7335C22.4004 28.9245 25.8101 32.334 30.0011 32.334C34.192 32.334 37.6016 28.9245 37.6016 24.7335ZM30.0011 30.5762C26.7793 30.5762 24.1582 27.9552 24.1582 24.7335C24.1582 21.5118 26.7793 18.8906 30.0011 18.8906C33.2228 18.8906 35.8438 21.5118 35.8438 24.7335C35.8438 27.9552 33.2228 30.5762 30.0011 30.5762Z" fill="#00652D"/>
<path d="M49.4481 50.7812H43.9551C43.4697 50.7812 43.0762 51.1748 43.0762 51.6602C43.0762 52.1455 43.4697 52.5391 43.9551 52.5391H49.4481C49.9335 52.5391 50.327 52.1455 50.327 51.6602C50.327 51.1748 49.9335 50.7812 49.4481 50.7812Z" fill="#00652D"/>
<path d="M46.7016 53.8848H43.9551C43.4697 53.8848 43.0762 54.2783 43.0762 54.7637C43.0762 55.2491 43.4697 55.6426 43.9551 55.6426H46.7016C47.187 55.6426 47.5805 55.2491 47.5805 54.7637C47.5805 54.2783 47.187 53.8848 46.7016 53.8848Z" fill="#00652D"/>
<path d="M16.9247 51.6602C16.9247 51.1748 16.5312 50.7812 16.0458 50.7812H10.5527C10.0673 50.7812 9.67383 51.1748 9.67383 51.6602C9.67383 52.1455 10.0673 52.5391 10.5527 52.5391H16.0458C16.5312 52.5391 16.9247 52.1455 16.9247 51.6602Z" fill="#00652D"/>
<path d="M16.0454 53.8848H13.2988C12.8134 53.8848 12.4199 54.2783 12.4199 54.7637C12.4199 55.2491 12.8134 55.6426 13.2988 55.6426H16.0454C16.5307 55.6426 16.9243 55.2491 16.9243 54.7637C16.9243 54.2783 16.5307 53.8848 16.0454 53.8848Z" fill="#00652D"/>
<path d="M55.1129 0H14.8857C14.4003 0 14.0067 0.393516 14.0067 0.878906C14.0067 1.3643 14.4003 1.75781 14.8857 1.75781H55.1129C55.5441 1.75781 55.8948 2.10855 55.8948 2.53969V47.5512H4.10547V2.53969C4.10547 2.10855 4.45621 1.75781 4.88722 1.75781H20.7841C21.2695 1.75781 21.663 1.3643 21.663 0.878906C21.663 0.393516 21.2695 0 20.7841 0H4.88722C3.48684 0 2.34766 1.1393 2.34766 2.53969V57.4603C2.34766 58.8607 3.48695 60 4.88722 60H55.1129C56.5133 60 57.6526 58.8607 57.6526 57.4603V2.53969C57.6526 1.1393 56.5133 0 55.1129 0ZM38.5836 49.309V58.2422H21.4165V49.309H38.5836ZM4.10547 57.4603V49.309H19.6587V58.2422H4.88722C4.45609 58.2422 4.10547 57.8914 4.10547 57.4603ZM55.1129 58.2422H40.3414V49.309H55.8948V57.4604C55.8948 57.8914 55.5441 58.2422 55.1129 58.2422Z" fill="#00652D"/>
</g>
<defs>
<clipPath id="clip0_245_6327">
<rect width="60" height="60" fill="white"/>
</clipPath>
</defs>
</svg>
