<svg width="60" height="60" viewBox="0 0 60 60" fill="none" xmlns="http://www.w3.org/2000/svg">
<path d="M25.4818 4.3125H22.2278C21.5604 4.3125 21.0173 4.85555 21.0173 5.52293V8.06215H18.478C17.8106 8.06215 17.2676 8.6052 17.2676 9.27258V12.5266C17.2676 13.194 17.8106 13.7371 18.478 13.7371H21.0173V16.2764C21.0173 16.9438 21.5604 17.4868 22.2278 17.4868H25.4818C26.1493 17.4868 26.6923 16.9438 26.6923 16.2764V13.7371H29.2316C29.899 13.7371 30.442 13.194 30.442 12.5266V9.27258C30.442 8.6052 29.899 8.06215 29.2316 8.06215H26.6923V5.52293C26.6923 4.85543 26.1492 4.3125 25.4818 4.3125ZM28.6842 9.81984V11.9791H26.0344C25.4278 11.9791 24.9345 12.4726 24.9345 13.0791V15.7289H22.775V13.0791C22.775 12.4725 22.2817 11.9791 21.6751 11.9791H19.0253V9.81984H21.6751C22.2817 9.81984 22.775 9.32648 22.775 8.72004V6.0702H24.9345V8.72004C24.9345 9.3266 25.4278 9.81984 26.0344 9.81984H28.6842Z" fill="#00652D"/>
<path d="M33.7004 30.9023H32.1191C31.6337 30.9023 31.2402 31.2957 31.2402 31.7812C31.2402 32.2668 31.6336 32.6602 32.1191 32.6602H33.7004C34.1857 32.6602 34.5793 32.2668 34.5793 31.7812C34.5793 31.2957 34.1857 30.9023 33.7004 30.9023Z" fill="#00652D"/>
<path d="M21.8961 30.9023H14.0098C13.5244 30.9023 13.1309 31.2957 13.1309 31.7812C13.1309 32.2668 13.5244 32.6602 14.0098 32.6602H21.8961C22.3815 32.6602 22.775 32.2668 22.775 31.7812C22.775 31.2957 22.3815 30.9023 21.8961 30.9023Z" fill="#00652D"/>
<path d="M33.7004 35.9883H32.1191C31.6337 35.9883 31.2402 36.3817 31.2402 36.8672C31.2402 37.3526 31.6336 37.7461 32.1191 37.7461H33.7004C34.1857 37.7461 34.5793 37.3527 34.5793 36.8672C34.5793 36.3817 34.1857 35.9883 33.7004 35.9883Z" fill="#00652D"/>
<path d="M21.8961 35.9883H14.0098C13.5244 35.9883 13.1309 36.3817 13.1309 36.8672C13.1309 37.3526 13.5244 37.7461 14.0098 37.7461H21.8961C22.3815 37.7461 22.775 37.3527 22.775 36.8672C22.775 36.3817 22.3815 35.9883 21.8961 35.9883Z" fill="#00652D"/>
<path d="M33.7004 41.0723H32.1191C31.6337 41.0723 31.2402 41.4657 31.2402 41.9512C31.2402 42.4367 31.6336 42.8301 32.1191 42.8301H33.7004C34.1857 42.8301 34.5793 42.4367 34.5793 41.9512C34.5793 41.4657 34.1857 41.0723 33.7004 41.0723Z" fill="#00652D"/>
<path d="M21.8961 41.0723H14.0098C13.5244 41.0723 13.1309 41.4657 13.1309 41.9512C13.1309 42.4367 13.5244 42.8301 14.0098 42.8301H21.8961C22.3815 42.8301 22.775 42.4367 22.775 41.9512C22.775 41.4657 22.3815 41.0723 21.8961 41.0723Z" fill="#00652D"/>
<path d="M54.0237 31.3841L48.7912 28.3631C48.1403 27.9873 47.3821 27.8873 46.6559 28.082C45.9298 28.2765 45.3229 28.7422 44.9471 29.3931L43.1418 32.5199V1.59832C43.1419 0.71707 42.4248 0 41.5435 0H6.16563C5.28496 0 4.56848 0.71707 4.56848 1.59832V8.34937C4.56848 8.83477 4.96199 9.22828 5.44738 9.22828C5.93277 9.22828 6.32629 8.83488 6.32629 8.34937V1.75781H41.3841V33.3245C40.9386 33.193 40.4648 33.1832 40.0048 33.3066C39.3457 33.4832 38.7948 33.9057 38.4537 34.4968L38.0966 35.1151C37.7554 35.7061 37.6648 36.3946 37.8414 37.0536C38.0018 37.6525 38.367 38.1601 38.8754 38.5042L32.3845 49.7469H6.32617V2.45082C6.32617 1.96543 5.93266 1.57191 5.44727 1.57191C4.96187 1.57191 4.56836 1.96531 4.56836 2.45082V49.9063C4.56836 50.7877 5.28484 51.5047 6.16551 51.5047H31.5525C30.6571 54.3608 31.8234 57.5638 34.5211 59.1213C35.5285 59.703 36.6463 60 37.7792 60C38.3471 60 38.9188 59.9254 39.482 59.7744C41.1688 59.3224 42.5786 58.2407 43.4518 56.7284L43.7417 56.2263C43.9844 55.806 43.8404 55.2684 43.42 55.0257C42.9998 54.7832 42.4621 54.927 42.2194 55.3474L41.9295 55.8495C41.2911 56.9551 40.2603 57.7461 39.027 58.0765C37.7942 58.4071 36.5057 58.2375 35.4 57.5991C33.1122 56.278 32.3294 53.3578 33.6504 51.0696L35.5804 47.7268H46.6191L44.2398 51.8479C43.9972 52.2682 44.1412 52.8057 44.5615 53.0484C44.9814 53.2907 45.5192 53.1477 45.7621 52.7268L50.1979 45.0436C50.5531 45.2159 50.9318 45.2987 51.3066 45.2987C52.1903 45.2987 53.0507 44.8405 53.5233 44.022L53.8804 43.4034C54.5847 42.1836 54.1652 40.6181 52.9454 39.9139L52.4976 39.6554L55.0538 35.2282C55.8296 33.8842 55.3675 32.1598 54.0237 31.3841ZM36.5954 45.969L40.3932 39.3908L48.6722 44.1708L47.6341 45.969H36.5954ZM52.3584 42.5247L52.0013 43.143C51.7817 43.5234 51.2931 43.6543 50.9127 43.4347L39.9105 37.0826C39.53 36.8627 39.3982 36.3765 39.6189 35.994L39.976 35.3756C40.1954 34.9958 40.6818 34.8629 41.0644 35.0841L52.0667 41.4361C52.4471 41.6558 52.578 42.1441 52.3584 42.5247ZM53.5315 34.3493L50.9754 38.7764L43.9132 34.6991L46.4693 30.2719C46.7605 29.7674 47.4079 29.5941 47.9123 29.8853L53.1448 32.9062C53.6493 33.1976 53.8226 33.8449 53.5315 34.3493Z" fill="#00652D"/>
<path d="M35.0727 21.998H12.6348C11.827 21.998 11.1699 22.6551 11.1699 23.4629V26.178C11.1699 26.9858 11.827 27.6429 12.6348 27.6429H35.0727C35.8804 27.6429 36.5375 26.9858 36.5375 26.178V23.4629C36.5375 22.6551 35.8803 21.998 35.0727 21.998ZM12.9277 23.7559H22.9748V25.885H12.9277V23.7559ZM34.7797 25.885H24.7326V23.7559H34.7797V25.885Z" fill="#00652D"/>
</svg>
