<svg width="60" height="60" viewBox="0 0 60 60" fill="none" xmlns="http://www.w3.org/2000/svg">
<g clip-path="url(#clip0_245_6322)">
<path d="M51.2133 8.78672C45.5469 3.12059 38.0133 0 30 0C21.9867 0 14.4531 3.12059 8.78672 8.78672C3.12059 14.4531 0 21.9867 0 30C0 38.0133 3.12059 45.5469 8.78672 51.2133C14.4531 56.8794 21.9867 60 30 60C38.0133 60 45.5469 56.8794 51.2133 51.2133C56.8794 45.5469 60 38.0133 60 30C60 21.9867 56.8794 14.4531 51.2133 8.78672ZM52.5453 30.8789H58.2272C58.0604 36.3686 56.3338 41.5888 53.259 46.0301H45.0541C45.3684 45.1848 45.6607 44.3079 45.9281 43.3998C46.0652 42.9341 45.799 42.4455 45.3334 42.3084C44.8678 42.1713 44.3791 42.4376 44.242 42.9033C43.9225 43.9882 43.5639 45.032 43.1701 46.0302H30.8789V43.1516C30.8789 42.6662 30.4854 42.2727 30 42.2727C29.5146 42.2727 29.1211 42.6662 29.1211 43.1516V46.0302H16.8299C16.4361 45.032 16.0775 43.9882 15.758 42.9033C15.6209 42.4376 15.1323 42.1712 14.6666 42.3084C14.201 42.4455 13.9346 42.9342 14.0719 43.3998C14.3393 44.3079 14.6316 45.1848 14.9459 46.0301H6.74086C3.66609 41.5888 1.93945 36.3686 1.7727 30.8789H7.45453C7.93992 30.8789 8.33344 30.4854 8.33344 30C8.33344 29.5146 7.93992 29.1211 7.45453 29.1211H1.7727C1.93945 23.6314 3.66609 18.4112 6.74086 13.9699H14.9457C14.6314 14.8152 14.3392 15.6921 14.0718 16.6002C13.9346 17.0659 14.2009 17.5545 14.6665 17.6916C15.1321 17.8288 15.6207 17.5624 15.7579 17.0967C16.0774 16.0118 16.436 14.968 16.8298 13.9698H29.1211V16.8484C29.1211 17.3338 29.5146 17.7273 30 17.7273C30.4854 17.7273 30.8789 17.3338 30.8789 16.8484V13.9699H43.1701C43.5639 14.9681 43.9225 16.0119 44.242 17.0968C44.3548 17.4796 44.705 17.7277 45.0847 17.7277C45.167 17.7277 45.2505 17.7159 45.3335 17.6916C45.7991 17.5545 46.0655 17.0658 45.9282 16.6002C45.6608 15.6921 45.3686 14.8152 45.0543 13.9699H53.2591C56.3339 18.4112 58.0605 23.6314 58.2273 29.1211H52.5455C52.0601 29.1211 51.6666 29.5146 51.6666 30C51.6666 30.4854 52.06 30.8789 52.5453 30.8789ZM29.1211 58.1985C26.4954 57.9412 23.9387 56.535 21.6776 54.0918C20.1124 52.4004 18.7295 50.2655 17.5815 47.7879H29.121V58.1985H29.1211ZM30.8789 47.7879H42.4184C41.2704 50.2655 39.8875 52.4004 38.3223 54.0918C36.0613 56.535 33.5045 57.9412 30.8788 58.1985V47.7879H30.8789ZM30.8789 1.80152C33.5046 2.05875 36.0613 3.46488 38.3224 5.90824C39.8876 7.59961 41.2705 9.73453 42.4185 12.2121H30.8789V1.80152ZM29.1211 12.2121H17.5816C18.7296 9.73453 20.1125 7.59961 21.6777 5.90824C23.9387 3.46488 26.4955 2.05875 29.1212 1.80152V12.2121H29.1211ZM49.9703 10.0297C50.6684 10.7278 51.3243 11.4567 51.939 12.2121H44.3482C42.5645 8.09273 40.2105 4.86352 37.5138 2.7634C42.1798 4.04273 46.4564 6.51609 49.9703 10.0297ZM10.0297 10.0297C13.5435 6.51598 17.8202 4.04273 22.4862 2.7634C19.7895 4.86352 17.4356 8.09273 15.6518 12.2121H8.06098C8.67574 11.4567 9.33164 10.7278 10.0297 10.0297ZM10.0297 49.9703C9.33164 49.2722 8.67574 48.5433 8.06098 47.7879H15.6518C17.4355 51.9073 19.7895 55.1365 22.4862 57.2366C17.8202 55.9573 13.5436 53.484 10.0297 49.9703ZM49.9703 49.9703C46.4565 53.484 42.1798 55.9573 37.5138 57.2366C40.2105 55.1365 42.5644 51.9073 44.3482 47.7879H51.939C51.3243 48.5433 50.6684 49.2722 49.9703 49.9703Z" fill="#00652D"/>
<path d="M45.0308 19.7266H14.9704C12.4138 19.7266 10.334 21.8065 10.334 24.363V35.6356C10.334 38.1922 12.4139 40.272 14.9704 40.272H45.031C47.5875 40.272 49.6674 38.192 49.6674 35.6356V24.363C49.6674 21.8064 47.5874 19.7266 45.0308 19.7266ZM47.9096 35.6357C47.9096 37.223 46.6181 38.5143 45.031 38.5143H14.9704C13.3831 38.5143 12.0918 37.2229 12.0918 35.6357V24.3631C12.0918 22.7758 13.3832 21.4845 14.9704 21.4845H45.031C46.6183 21.4845 47.9096 22.7759 47.9096 24.3631V35.6357Z" fill="#00652D"/>
<path d="M21.0396 34.1322C20.0876 34.1322 19.2796 33.9522 18.6156 33.5922C17.9596 33.2322 17.4596 32.7282 17.1156 32.0802C16.7716 31.4322 16.5996 30.6722 16.5996 29.8002C16.5996 29.1282 16.6996 28.5242 16.8996 27.9882C17.1076 27.4442 17.4036 26.9842 17.7876 26.6082C18.1796 26.2242 18.6516 25.9282 19.2036 25.7202C19.7636 25.5122 20.3956 25.4082 21.0996 25.4082C21.5316 25.4082 21.9636 25.4562 22.3956 25.5522C22.8276 25.6482 23.2436 25.8082 23.6436 26.0322C23.8116 26.1282 23.9236 26.2522 23.9796 26.4042C24.0436 26.5482 24.0596 26.7042 24.0276 26.8722C24.0036 27.0322 23.9396 27.1762 23.8356 27.3042C23.7396 27.4242 23.6116 27.5042 23.4516 27.5442C23.2996 27.5762 23.1236 27.5442 22.9236 27.4482C22.6596 27.3042 22.3796 27.2002 22.0836 27.1362C21.7876 27.0642 21.4636 27.0282 21.1116 27.0282C20.5436 27.0282 20.0676 27.1362 19.6836 27.3522C19.2996 27.5602 19.0116 27.8722 18.8196 28.2882C18.6356 28.6962 18.5436 29.2002 18.5436 29.8002C18.5436 30.7042 18.7596 31.3882 19.1916 31.8522C19.6316 32.3162 20.2796 32.5482 21.1356 32.5482C21.4236 32.5482 21.7196 32.5202 22.0236 32.4642C22.3276 32.4082 22.6276 32.3282 22.9236 32.2242L22.5756 32.9802V30.6762H21.4956C21.2556 30.6762 21.0716 30.6162 20.9436 30.4962C20.8156 30.3762 20.7516 30.2122 20.7516 30.0042C20.7516 29.7882 20.8156 29.6242 20.9436 29.5122C21.0716 29.3922 21.2556 29.3322 21.4956 29.3322H23.3796C23.6196 29.3322 23.7996 29.3962 23.9196 29.5242C24.0476 29.6522 24.1116 29.8362 24.1116 30.0762V32.8602C24.1116 33.0682 24.0716 33.2442 23.9916 33.3882C23.9116 33.5322 23.7756 33.6362 23.5836 33.7002C23.2236 33.8282 22.8196 33.9322 22.3716 34.0122C21.9236 34.0922 21.4796 34.1322 21.0396 34.1322Z" fill="#00652D"/>
<path d="M26.6219 34.1082C26.3499 34.1082 26.1419 34.0322 25.9979 33.8802C25.8539 33.7282 25.7819 33.5162 25.7819 33.2442V26.2962C25.7819 26.0242 25.8579 25.8122 26.0099 25.6602C26.1699 25.5082 26.3859 25.4322 26.6579 25.4322C26.8979 25.4322 27.0859 25.4802 27.2219 25.5762C27.3659 25.6642 27.4979 25.8202 27.6179 26.0442L30.3899 31.1082H29.9819L32.7539 26.0442C32.8739 25.8202 33.0019 25.6642 33.1379 25.5762C33.2819 25.4802 33.4699 25.4322 33.7019 25.4322C33.9739 25.4322 34.1819 25.5082 34.3259 25.6602C34.4779 25.8122 34.5539 26.0242 34.5539 26.2962V33.2442C34.5539 33.5162 34.4819 33.7282 34.3379 33.8802C34.1939 34.0322 33.9859 34.1082 33.7139 34.1082C33.4419 34.1082 33.2299 34.0322 33.0779 33.8802C32.9339 33.7282 32.8619 33.5162 32.8619 33.2442V28.3842H33.1259L30.8939 32.3802C30.7979 32.5322 30.6939 32.6482 30.5819 32.7282C30.4779 32.8002 30.3379 32.8362 30.1619 32.8362C29.9859 32.8362 29.8419 32.7962 29.7299 32.7162C29.6179 32.6362 29.5179 32.5242 29.4299 32.3802L27.1739 28.3722H27.4619V33.2442C27.4619 33.5162 27.3899 33.7282 27.2459 33.8802C27.1099 34.0322 26.9019 34.1082 26.6219 34.1082Z" fill="#00652D"/>
<path d="M37.2056 34.1082C36.9016 34.1082 36.6696 34.0242 36.5096 33.8562C36.3496 33.6882 36.2696 33.4522 36.2696 33.1482V26.4882C36.2696 26.1762 36.3496 25.9402 36.5096 25.7802C36.6776 25.6202 36.9136 25.5402 37.2176 25.5402H40.1336C41.0776 25.5402 41.8056 25.7802 42.3176 26.2602C42.8296 26.7322 43.0856 27.3922 43.0856 28.2402C43.0856 29.0882 42.8296 29.7522 42.3176 30.2322C41.8056 30.7122 41.0776 30.9522 40.1336 30.9522H38.1296V33.1482C38.1296 33.4522 38.0496 33.6882 37.8896 33.8562C37.7376 34.0242 37.5096 34.1082 37.2056 34.1082ZM38.1296 29.5122H39.8216C40.3016 29.5122 40.6656 29.4042 40.9136 29.1882C41.1696 28.9722 41.2976 28.6562 41.2976 28.2402C41.2976 27.8242 41.1696 27.5122 40.9136 27.3042C40.6656 27.0962 40.3016 26.9922 39.8216 26.9922H38.1296V29.5122Z" fill="#00652D"/>
</g>
<defs>
<clipPath id="clip0_245_6322">
<rect width="60" height="60" fill="white"/>
</clipPath>
</defs>
</svg>
