<svg width="60" height="60" viewBox="0 0 60 60" fill="none" xmlns="http://www.w3.org/2000/svg">
<g clip-path="url(#clip0_275_13921)">
<path d="M33.0643 11.3338C33.0643 9.64417 31.6897 8.26944 29.9999 8.26944C28.3102 8.26944 26.9356 9.64405 26.9356 11.3338C26.9356 13.0235 28.3102 14.3981 29.9999 14.3981C31.6897 14.3981 33.0643 13.0235 33.0643 11.3338ZM28.6934 11.3338C28.6934 10.6134 29.2795 10.0273 29.9999 10.0273C30.7204 10.0273 31.3065 10.6133 31.3065 11.3338C31.3065 12.0542 30.7204 12.6403 29.9999 12.6403C29.2795 12.6403 28.6934 12.0542 28.6934 11.3338Z" fill="white"/>
<path d="M41.6291 17.4202C42.824 16.2254 42.824 14.2813 41.6291 13.0866C40.4343 11.8918 38.4902 11.8918 37.2955 13.0866C36.1008 14.2814 36.1008 16.2254 37.2955 17.4202C37.8929 18.0176 38.6776 18.3162 39.4623 18.3162C40.247 18.3162 41.0318 18.0176 41.6291 17.4202ZM38.5385 14.3295C38.7932 14.0748 39.1277 13.9474 39.4623 13.9474C39.7969 13.9474 40.1315 14.0748 40.3862 14.3295C40.8956 14.8389 40.8956 15.6677 40.3862 16.1773C39.8768 16.6867 39.0479 16.6867 38.5385 16.1773C38.0291 15.6677 38.0291 14.8389 38.5385 14.3295Z" fill="white"/>
<path d="M46.4463 24.7158C46.4463 23.0262 45.0717 21.6515 43.382 21.6515C41.6922 21.6515 40.3176 23.0261 40.3176 24.7158C40.3176 26.4055 41.6922 27.7801 43.382 27.7801C45.0717 27.7801 46.4463 26.4055 46.4463 24.7158ZM42.0754 24.7158C42.0754 23.9954 42.6615 23.4093 43.382 23.4093C44.1024 23.4093 44.6885 23.9953 44.6885 24.7158C44.6885 25.4363 44.1024 26.0223 43.382 26.0223C42.6615 26.0223 42.0754 25.4363 42.0754 24.7158Z" fill="white"/>
<path d="M37.2955 36.3451C37.8929 36.9425 38.6776 37.2411 39.4623 37.2411C40.247 37.2411 41.0318 36.9424 41.6291 36.3451C42.2079 35.7663 42.5267 34.9969 42.5267 34.1783C42.5267 33.3599 42.2079 32.5903 41.6291 32.0115C41.0503 31.4327 40.2808 31.114 39.4623 31.114C38.6438 31.114 37.8742 31.4327 37.2955 32.0115C36.1008 33.2062 36.1008 35.1503 37.2955 36.3451ZM38.5385 33.2544C38.7852 33.0076 39.1133 32.8717 39.4623 32.8717C39.8113 32.8717 40.1393 33.0076 40.3861 33.2544C40.6329 33.5011 40.7688 33.8292 40.7688 34.1782C40.7688 34.5272 40.6329 34.8553 40.3861 35.1021C39.8768 35.6115 39.0478 35.6116 38.5384 35.1021C38.0291 34.5927 38.0291 33.7638 38.5385 33.2544Z" fill="white"/>
<path d="M26.9356 38.0977C26.9356 39.7873 28.3102 41.1621 29.9999 41.1621C31.6897 41.1621 33.0643 39.7875 33.0643 38.0977C33.0643 36.408 31.6897 35.0334 29.9999 35.0334C28.3102 35.0334 26.9356 36.4081 26.9356 38.0977ZM31.3065 38.0977C31.3065 38.8181 30.7204 39.4043 29.9999 39.4043C29.2795 39.4043 28.6934 38.8182 28.6934 38.0977C28.6934 37.3773 29.2795 36.7912 29.9999 36.7912C30.7204 36.7912 31.3065 37.3774 31.3065 38.0977Z" fill="white"/>
<path d="M20.5375 37.2412C21.3221 37.2412 22.1069 36.9425 22.7044 36.3452C23.8991 35.1504 23.8991 33.2063 22.7044 32.0116C22.1256 31.4328 21.356 31.1141 20.5376 31.1141C19.719 31.1141 18.9494 31.4328 18.3708 32.0116C17.176 33.2063 17.176 35.1504 18.3708 36.3452C18.9681 36.9425 19.7528 37.2412 20.5375 37.2412ZM19.6137 33.2544C19.8605 33.0076 20.1886 32.8717 20.5376 32.8717C20.8866 32.8717 21.2146 33.0076 21.4614 33.2544C21.9708 33.7638 21.9708 34.5927 21.4614 35.1021C20.9519 35.6115 20.1231 35.6115 19.6137 35.1021C19.1043 34.5927 19.1043 33.7638 19.6137 33.2544Z" fill="white"/>
<path d="M13.5536 24.7158C13.5536 26.4054 14.9283 27.7801 16.618 27.7801C18.3077 27.7801 19.6823 26.4055 19.6823 24.7158C19.6823 23.0261 18.3077 21.6515 16.618 21.6515C14.9283 21.6515 13.5536 23.0262 13.5536 24.7158ZM17.9245 24.7158C17.9245 25.4361 17.3385 26.0223 16.618 26.0223C15.8975 26.0223 15.3115 25.4363 15.3115 24.7158C15.3115 23.9953 15.8975 23.4093 16.618 23.4093C17.3385 23.4093 17.9245 23.9954 17.9245 24.7158Z" fill="white"/>
<path d="M22.7044 17.4202C23.899 16.2253 23.899 14.2813 22.7044 13.0866C21.5095 11.8918 19.5655 11.8918 18.3708 13.0866C17.176 14.2814 17.176 16.2254 18.3708 17.4202C18.9682 18.0176 19.7529 18.3162 20.5376 18.3162C21.3221 18.3162 22.1069 18.0176 22.7044 17.4202ZM19.6137 14.3295C19.8683 14.0748 20.2029 13.9474 20.5375 13.9474C20.872 13.9474 21.2066 14.0748 21.4612 14.3295C21.9707 14.8389 21.9707 15.6677 21.4612 16.1773C20.9518 16.6867 20.123 16.6867 19.6135 16.1773C19.1043 15.6677 19.1043 14.8389 19.6137 14.3295Z" fill="white"/>
<path d="M44.8689 36.9389C45.2574 37.2298 45.8084 37.1503 46.0992 36.7617C48.7131 33.2683 50.0948 29.1092 50.0948 24.7341C50.0948 13.6536 41.0803 4.63911 29.9998 4.63911C18.9194 4.63911 9.90503 13.6536 9.90503 24.7341C9.90503 35.8144 18.9195 44.829 30 44.829C34.8657 44.829 39.5606 43.0674 43.2199 39.8685C43.5854 39.549 43.6226 38.9938 43.3031 38.6283C42.9835 38.2628 42.4283 38.2256 42.0629 38.5451C38.7242 41.4638 34.4402 43.0712 30 43.0712C19.8888 43.0712 11.6628 34.8453 11.6628 24.7341C11.6628 14.6229 19.8888 6.39692 30 6.39692C40.111 6.39692 48.3371 14.6229 48.3371 24.7341C48.3371 28.7265 47.0766 32.5215 44.6919 35.7087C44.401 36.0973 44.4803 36.6481 44.8689 36.9389Z" fill="white"/>
<path d="M37.6005 24.7341C37.6005 20.5431 34.1909 17.1334 30 17.1334C25.809 17.1334 22.3993 20.5431 22.3993 24.7341C22.3993 28.925 25.809 32.3346 30 32.3346C34.1909 32.3346 37.6005 28.925 37.6005 24.7341ZM30 30.5768C26.7782 30.5768 24.1571 27.9558 24.1571 24.7341C24.1571 21.5123 26.7782 18.8912 30 18.8912C33.2217 18.8912 35.8427 21.5123 35.8427 24.7341C35.8427 27.9558 33.2217 30.5768 30 30.5768Z" fill="white"/>
<path d="M49.4481 50.7812H43.9551C43.4697 50.7812 43.0762 51.1747 43.0762 51.6601C43.0762 52.1455 43.4697 52.539 43.9551 52.539H49.4481C49.9335 52.539 50.327 52.1455 50.327 51.6601C50.327 51.1747 49.9335 50.7812 49.4481 50.7812Z" fill="white"/>
<path d="M46.7016 53.8853H43.9551C43.4697 53.8853 43.0762 54.2788 43.0762 54.7642C43.0762 55.2496 43.4697 55.6431 43.9551 55.6431H46.7016C47.187 55.6431 47.5805 55.2496 47.5805 54.7642C47.5805 54.2788 47.187 53.8853 46.7016 53.8853Z" fill="white"/>
<path d="M16.9237 51.6601C16.9237 51.1747 16.5302 50.7812 16.0448 50.7812H10.5518C10.0664 50.7812 9.67285 51.1747 9.67285 51.6601C9.67285 52.1455 10.0664 52.539 10.5518 52.539H16.0448C16.5302 52.539 16.9237 52.1455 16.9237 51.6601Z" fill="white"/>
<path d="M16.0448 53.8853H13.2983C12.8129 53.8853 12.4194 54.2788 12.4194 54.7642C12.4194 55.2496 12.8129 55.6431 13.2983 55.6431H16.0448C16.5302 55.6431 16.9237 55.2496 16.9237 54.7642C16.9237 54.2788 16.5302 53.8853 16.0448 53.8853Z" fill="white"/>
<path d="M55.1127 0H14.8855C14.4001 0 14.0066 0.393516 14.0066 0.878906C14.0066 1.3643 14.4001 1.75781 14.8855 1.75781H55.1127C55.5439 1.75781 55.8946 2.10855 55.8946 2.53969V47.5512H4.10528V2.53969C4.10528 2.10855 4.45603 1.75781 4.88704 1.75781H20.7839C21.2693 1.75781 21.6628 1.3643 21.6628 0.878906C21.6628 0.393516 21.2693 0 20.7839 0H4.88704C3.48665 0 2.34747 1.1393 2.34747 2.53969V57.4603C2.34747 58.8607 3.48677 60 4.88704 60H55.1127C56.5131 60 57.6524 58.8607 57.6524 57.4603V2.53969C57.6524 1.1393 56.5131 0 55.1127 0ZM38.5835 49.309V58.2422H21.4163V49.309H38.5835ZM4.10528 57.4603V49.309H19.6585V58.2422H4.88704C4.45591 58.2422 4.10528 57.8914 4.10528 57.4603ZM55.1127 58.2422H40.3413V49.309H55.8946V57.4604C55.8946 57.8914 55.5439 58.2422 55.1127 58.2422Z" fill="white"/>
</g>
<defs>
<clipPath id="clip0_275_13921">
<rect width="60" height="60" fill="white"/>
</clipPath>
</defs>
</svg>
