<svg width="60" height="60" viewBox="0 0 60 60" fill="none" xmlns="http://www.w3.org/2000/svg">
<g clip-path="url(#clip0_275_13938)">
<path d="M23.6236 26.9249C24.0161 26.6395 24.103 26.0899 23.8175 25.6972C23.5322 25.3047 22.9826 25.2178 22.5898 25.5033C21.6854 26.1608 20.4702 26.1608 19.5658 25.5033C18.6009 24.8516 17.6151 26.2087 18.5322 26.9249C20.055 28.032 22.1009 28.032 23.6236 26.9249Z" fill="white"/>
<path d="M20.785 23.9053H21.3709C22.5346 23.865 22.5337 22.1875 21.3709 22.1476H20.785C19.6213 22.1879 19.6222 23.8653 20.785 23.9053Z" fill="white"/>
<path d="M59.341 53.9583L58.2113 52.258C57.9428 51.8536 57.3972 51.7439 56.993 52.0123C56.5888 52.2809 56.4787 52.8263 56.7473 53.2306L57.8772 54.9311C58.3192 55.596 58.3581 56.413 57.981 57.1163C57.6039 57.8199 56.902 58.2399 56.1036 58.2399H44.2907C43.4923 58.2399 42.7904 57.8199 42.4133 57.1163C42.0362 56.4129 42.0751 55.596 42.5173 54.931L47.5711 47.3262C47.9961 46.6871 48.2208 45.943 48.2208 45.1744V44.2105H52.1733V45.1744C52.1733 45.943 52.3979 46.6871 52.8228 47.326L54.4727 49.8091C54.7429 50.2165 55.2923 50.3211 55.691 50.0547C56.0953 49.7861 56.2052 49.2406 55.9366 48.8363L54.2865 46.3531C54.0539 46.0033 53.9309 45.5958 53.9309 45.1746V40.2297C54.4439 39.9084 54.7869 39.3396 54.7869 38.6909V37.1051C54.7869 36.1035 53.9721 35.2888 52.9706 35.2888H47.4234C46.4218 35.2888 45.6071 36.1035 45.6071 37.1051V38.6909C45.6071 39.3396 45.9499 39.9082 46.463 40.2296V45.1746C46.463 45.5957 46.34 46.0033 46.1072 46.3533L42.1554 52.2997V45.3012C42.1554 40.9652 39.0561 37.277 34.7859 36.5317L31.5276 35.9627L31.4444 35.0922C31.3789 34.4246 30.8975 33.8684 30.2458 33.7081L28.343 33.2419C27.9318 33.1408 27.5062 33.2065 27.1445 33.4263C27.0703 33.4714 27.0019 33.5231 26.9371 33.5784V31.1733C30.0177 29.3003 32.137 25.9975 32.3683 22.1934C33.3412 22.1137 34.2464 21.6974 34.9467 20.9984C35.727 20.2181 36.1568 19.1809 36.1568 18.0779V10.9475C36.1165 9.78375 34.4391 9.78468 34.3991 10.9475V14.6993C33.7925 14.2718 33.0664 14.0032 32.2814 13.9548C31.6976 10.6278 28.7892 8.09084 25.2975 8.09084H16.8575C13.3658 8.09084 10.4574 10.6278 9.87362 13.9548C9.10492 14.0017 8.37734 14.258 7.75687 14.6957V10.2548C7.75687 5.57029 11.5679 1.75923 16.2525 1.75923H32.5241C33.5579 1.75923 34.399 2.59977 34.399 3.63295V6.84603C34.4393 8.00975 36.1168 8.00881 36.1567 6.84603V3.63295C36.1567 1.63057 34.5271 0.00152588 32.5241 0.00152588H16.2529C10.5992 0.00152588 5.99964 4.60109 5.99964 10.2548V18.0778C5.99964 20.2394 7.66946 22.0174 9.78726 22.1929C10.0186 25.9976 12.1381 29.3008 15.2194 31.1737V33.579C15.1539 33.523 15.0846 33.4707 15.0094 33.4252C14.648 33.2061 14.2228 33.1412 13.8126 33.2416L11.9089 33.7081C11.256 33.8688 10.7749 34.4262 10.7119 35.0945L10.6288 35.9625L7.36959 36.5316C3.0993 37.2768 0 40.9651 0 45.3011V57.6601C0 58.9491 1.04876 59.9979 2.33775 59.9979H39.8179C40.5967 59.9979 41.2858 59.6137 41.7108 59.0265C42.4056 59.6479 43.3076 59.9979 44.2907 59.9979H56.1036C59.1626 60.0526 61.0797 56.4746 59.341 53.9583ZM48.2209 42.4529V40.5072H52.1734V42.4529H48.2209ZM47.365 37.1051C47.365 37.0727 47.3913 37.0465 47.4236 37.0465H52.9708C53.0032 37.0465 53.0294 37.0727 53.0294 37.1051V38.6909C53.0294 38.7232 53.0032 38.7495 52.9708 38.7495H47.4236C47.3913 38.7495 47.365 38.7232 47.365 38.6909V37.1051ZM28.096 34.9908L29.707 35.3856L30.4389 43.0445L28.0089 45.1681C27.6481 45.4812 27.4504 45.9347 27.4664 46.4106L27.579 49.9634L24.6576 58.2402H22.4024L28.096 34.9908ZM21.0778 56.2591L17.4793 41.5621C19.7367 42.0231 22.42 42.0229 24.6772 41.5614L21.0778 56.2591ZM11.5231 20.6206V15.7033H30.6328V20.6206H24.7562C24.5828 20.6206 24.4258 20.5179 24.3563 20.3592C24.0069 19.5606 23.2178 19.0445 22.3461 19.0445H19.8097C18.9381 19.0445 18.149 19.5605 17.7995 20.359C17.73 20.5178 17.573 20.6205 17.3995 20.6205L11.5231 20.6206ZM34.3995 18.0778C34.3995 18.7113 34.1526 19.3071 33.7048 19.7549C33.343 20.116 32.8853 20.3438 32.3905 20.4201V15.7349C33.5264 15.9113 34.3995 16.8931 34.3995 18.0778ZM16.8579 9.84843H25.298C27.8135 9.84843 29.9265 11.599 30.4863 13.9455H11.6695C12.2294 11.599 14.3424 9.84843 16.8579 9.84843ZM7.75734 18.0778C7.75734 17.4427 8.00401 16.8467 8.45316 16.3983C8.8129 16.0379 9.26979 15.8105 9.76523 15.7343V20.4194C8.62987 20.2426 7.75734 19.2614 7.75734 18.0778ZM11.5651 22.3783H17.3996C18.2714 22.3783 19.0603 21.8623 19.4098 21.0639C19.4794 20.905 19.6364 20.8023 19.8098 20.8023H22.3462C22.5196 20.8023 22.6765 20.905 22.7461 21.0639C23.0957 21.8623 23.8846 22.3783 24.7563 22.3783H30.5909C29.2434 33.871 12.9082 33.8626 11.5651 22.3783ZM21.0779 32.812C22.5241 32.812 23.9074 32.5389 25.1797 32.0422V34.6729C25.1797 35.3438 25.4651 35.9649 25.9415 36.3989L25.1475 39.6411C22.7384 40.3176 19.4196 40.318 17.0092 39.642L16.215 36.398C16.6916 35.9634 16.9771 35.3424 16.9771 34.6727V32.0424C18.2492 32.539 19.6322 32.812 21.0779 32.812ZM12.4498 35.3853L14.0607 34.9905L19.7533 58.2402H17.4982L14.5778 49.9633L14.6893 46.4122C14.7053 45.9348 14.5075 45.4813 14.1491 45.1702L11.7169 43.0446L12.4498 35.3853ZM1.75771 57.6601V45.3011C1.75771 41.8212 4.24498 38.8612 7.6718 38.263L10.4551 37.7771L9.95869 42.9634C9.90877 43.4669 10.1068 43.9687 10.4916 44.3084L12.9298 46.4392L12.8201 49.9336C12.8123 50.1331 12.8426 50.3305 12.9094 50.5175L15.6342 58.2402H11.3479L11.3521 49.6942C11.3523 49.2089 10.9591 48.8151 10.4737 48.8149C9.98846 48.8147 9.59461 49.2079 9.59438 49.6933L9.59016 58.2401H2.33775C2.01796 58.2402 1.75771 57.9799 1.75771 57.6601ZM39.8179 58.2402H32.5619L32.5661 49.6946C32.5663 49.2091 32.173 48.8155 31.6877 48.8152C31.2024 48.815 30.8086 49.2083 30.8084 49.6936L30.8041 58.2402H26.5214L29.25 50.5098C29.3128 50.3265 29.342 50.1365 29.3367 49.9406L29.2257 46.4391L31.6669 44.3056C32.0486 43.9687 32.2466 43.467 32.197 42.9665L31.701 37.7772L34.4836 38.2632C37.9104 38.8614 40.3977 41.8213 40.3977 45.3012V57.6603C40.3979 57.9799 40.1377 58.2402 39.8179 58.2402Z" fill="white"/>
<path d="M53.3688 54.4899C52.7151 54.9975 53.0815 56.0635 53.9089 56.0631C54.3228 56.0631 54.6882 55.7599 54.7702 55.3552C54.9292 54.5702 53.9954 54.0069 53.3688 54.4899Z" fill="white"/>
<path d="M50.1978 49.1518C50.5969 49.1518 50.9511 48.8714 51.0494 48.4859C51.2448 47.7201 50.361 47.1083 49.7092 47.5416C48.9946 48.0209 49.3379 49.1492 50.1978 49.1518Z" fill="white"/>
<path d="M50.1977 53.5495C50.5818 53.5495 50.9297 53.2886 51.0396 52.9213C51.2664 52.1639 50.4088 51.5107 49.7381 51.921C48.9914 52.3829 49.3191 53.5466 50.1977 53.5495Z" fill="white"/>
<path d="M48.6944 33.623C49.1568 33.623 49.5505 33.2495 49.5722 32.7874C49.609 32.004 48.6292 31.5677 48.0733 32.123C47.5314 32.6643 47.929 33.623 48.6944 33.623Z" fill="white"/>
<path d="M51.6567 30.8787C52.061 30.8787 52.4206 30.5906 52.5124 30.1978C52.6928 29.4257 51.7835 28.821 51.1406 29.2885C50.4592 29.7845 50.8139 30.8774 51.6567 30.8787Z" fill="white"/>
<path d="M49.2334 27.0926C50.1152 27.0877 50.4418 25.9166 49.6849 25.4607C49.3381 25.2534 48.8805 25.3132 48.6002 25.6051C48.0744 26.1528 48.4754 27.0926 49.2334 27.0926Z" fill="white"/>
<path d="M52.5191 23.8068C52.9439 23.8068 53.315 23.491 53.3857 23.0731C53.5171 22.2965 52.5954 21.758 51.9789 22.2356C51.3315 22.7369 51.702 23.8068 52.5191 23.8068Z" fill="white"/>
<path d="M45.7762 54.3519C45.1439 54.8619 45.5226 55.9164 46.3344 55.9106C46.7494 55.9106 47.113 55.6073 47.1957 55.2029C47.3578 54.4105 46.4002 53.844 45.7762 54.3519Z" fill="white"/>
</g>
<defs>
<clipPath id="clip0_275_13938">
<rect width="60" height="60" fill="white"/>
</clipPath>
</defs>
</svg>
