<svg width="60" height="60" viewBox="0 0 60 60" fill="none" xmlns="http://www.w3.org/2000/svg">
<g clip-path="url(#clip0_275_13916)">
<path d="M51.2133 8.78672C45.5469 3.12059 38.0133 0 30 0C21.9867 0 14.4531 3.12059 8.78672 8.78672C3.12059 14.4531 0 21.9867 0 30C0 38.0133 3.12059 45.5469 8.78672 51.2133C14.4531 56.8794 21.9867 60 30 60C38.0133 60 45.5469 56.8794 51.2133 51.2133C56.8794 45.5469 60 38.0133 60 30C60 21.9867 56.8794 14.4531 51.2133 8.78672ZM52.5453 30.8789H58.2272C58.0604 36.3686 56.3338 41.5888 53.259 46.0301H45.0541C45.3684 45.1848 45.6607 44.3079 45.9281 43.3998C46.0652 42.9341 45.799 42.4455 45.3334 42.3084C44.8678 42.1713 44.3791 42.4376 44.242 42.9033C43.9225 43.9882 43.5639 45.032 43.1701 46.0302H30.8789V43.1516C30.8789 42.6662 30.4854 42.2727 30 42.2727C29.5146 42.2727 29.1211 42.6662 29.1211 43.1516V46.0302H16.8299C16.4361 45.032 16.0775 43.9882 15.758 42.9033C15.6209 42.4376 15.1323 42.1712 14.6666 42.3084C14.201 42.4455 13.9346 42.9342 14.0719 43.3998C14.3393 44.3079 14.6316 45.1848 14.9459 46.0301H6.74086C3.66609 41.5888 1.93945 36.3686 1.7727 30.8789H7.45453C7.93992 30.8789 8.33344 30.4854 8.33344 30C8.33344 29.5146 7.93992 29.1211 7.45453 29.1211H1.7727C1.93945 23.6314 3.66609 18.4112 6.74086 13.9699H14.9457C14.6314 14.8152 14.3392 15.6921 14.0718 16.6002C13.9346 17.0659 14.2009 17.5545 14.6665 17.6916C15.1321 17.8288 15.6207 17.5624 15.7579 17.0967C16.0774 16.0118 16.436 14.968 16.8298 13.9698H29.1211V16.8484C29.1211 17.3338 29.5146 17.7273 30 17.7273C30.4854 17.7273 30.8789 17.3338 30.8789 16.8484V13.9699H43.1701C43.5639 14.9681 43.9225 16.0119 44.242 17.0968C44.3548 17.4796 44.705 17.7277 45.0847 17.7277C45.167 17.7277 45.2505 17.7159 45.3335 17.6916C45.7991 17.5545 46.0655 17.0658 45.9282 16.6002C45.6608 15.6921 45.3686 14.8152 45.0543 13.9699H53.2591C56.3339 18.4112 58.0605 23.6314 58.2273 29.1211H52.5455C52.0601 29.1211 51.6666 29.5146 51.6666 30C51.6666 30.4854 52.06 30.8789 52.5453 30.8789ZM29.1211 58.1985C26.4954 57.9412 23.9387 56.535 21.6776 54.0918C20.1124 52.4004 18.7295 50.2655 17.5815 47.7879H29.121V58.1985H29.1211ZM30.8789 47.7879H42.4184C41.2704 50.2655 39.8875 52.4004 38.3223 54.0918C36.0613 56.535 33.5045 57.9412 30.8788 58.1985V47.7879H30.8789ZM30.8789 1.80152C33.5046 2.05875 36.0613 3.46488 38.3224 5.90824C39.8876 7.59961 41.2705 9.73453 42.4185 12.2121H30.8789V1.80152ZM29.1211 12.2121H17.5816C18.7296 9.73453 20.1125 7.59961 21.6777 5.90824C23.9387 3.46488 26.4955 2.05875 29.1212 1.80152V12.2121H29.1211ZM49.9703 10.0297C50.6684 10.7278 51.3243 11.4567 51.939 12.2121H44.3482C42.5645 8.09273 40.2105 4.86352 37.5138 2.7634C42.1798 4.04273 46.4564 6.51609 49.9703 10.0297ZM10.0297 10.0297C13.5435 6.51598 17.8202 4.04273 22.4862 2.7634C19.7895 4.86352 17.4356 8.09273 15.6518 12.2121H8.06098C8.67574 11.4567 9.33164 10.7278 10.0297 10.0297ZM10.0297 49.9703C9.33164 49.2722 8.67574 48.5433 8.06098 47.7879H15.6518C17.4355 51.9073 19.7895 55.1365 22.4862 57.2366C17.8202 55.9573 13.5436 53.484 10.0297 49.9703ZM49.9703 49.9703C46.4565 53.484 42.1798 55.9573 37.5138 57.2366C40.2105 55.1365 42.5644 51.9073 44.3482 47.7879H51.939C51.3243 48.5433 50.6684 49.2722 49.9703 49.9703Z" fill="white"/>
<path d="M45.0302 19.7272H14.9698C12.4132 19.7272 10.3334 21.8072 10.3334 24.3636V35.6362C10.3334 38.1928 12.4133 40.2727 14.9698 40.2727H45.0303C47.5869 40.2727 49.6667 38.1927 49.6667 35.6362V24.3636C49.6667 21.8071 47.5868 19.7272 45.0302 19.7272ZM47.9089 35.6364C47.9089 37.2237 46.6175 38.515 45.0303 38.515H14.9698C13.3825 38.515 12.0912 37.2235 12.0912 35.6364V24.3637C12.0912 22.7764 13.3826 21.4851 14.9698 21.4851H45.0303C46.6176 21.4851 47.9089 22.7766 47.9089 24.3637V35.6364Z" fill="white"/>
<path d="M21.04 34.132C20.088 34.132 19.28 33.952 18.616 33.592C17.96 33.232 17.46 32.728 17.116 32.08C16.772 31.432 16.6 30.672 16.6 29.8C16.6 29.128 16.7 28.524 16.9 27.988C17.108 27.444 17.404 26.984 17.788 26.608C18.18 26.224 18.652 25.928 19.204 25.72C19.764 25.512 20.396 25.408 21.1 25.408C21.532 25.408 21.964 25.456 22.396 25.552C22.828 25.648 23.244 25.808 23.644 26.032C23.812 26.128 23.924 26.252 23.98 26.404C24.044 26.548 24.06 26.704 24.028 26.872C24.004 27.032 23.94 27.176 23.836 27.304C23.74 27.424 23.612 27.504 23.452 27.544C23.3 27.576 23.124 27.544 22.924 27.448C22.66 27.304 22.38 27.2 22.084 27.136C21.788 27.064 21.464 27.028 21.112 27.028C20.544 27.028 20.068 27.136 19.684 27.352C19.3 27.56 19.012 27.872 18.82 28.288C18.636 28.696 18.544 29.2 18.544 29.8C18.544 30.704 18.76 31.388 19.192 31.852C19.632 32.316 20.28 32.548 21.136 32.548C21.424 32.548 21.72 32.52 22.024 32.464C22.328 32.408 22.628 32.328 22.924 32.224L22.576 32.98V30.676H21.496C21.256 30.676 21.072 30.616 20.944 30.496C20.816 30.376 20.752 30.212 20.752 30.004C20.752 29.788 20.816 29.624 20.944 29.512C21.072 29.392 21.256 29.332 21.496 29.332H23.38C23.62 29.332 23.8 29.396 23.92 29.524C24.048 29.652 24.112 29.836 24.112 30.076V32.86C24.112 33.068 24.072 33.244 23.992 33.388C23.912 33.532 23.776 33.636 23.584 33.7C23.224 33.828 22.82 33.932 22.372 34.012C21.924 34.092 21.48 34.132 21.04 34.132Z" fill="white"/>
<path d="M26.6222 34.108C26.3502 34.108 26.1422 34.032 25.9982 33.88C25.8542 33.728 25.7822 33.516 25.7822 33.244V26.296C25.7822 26.024 25.8582 25.812 26.0102 25.66C26.1702 25.508 26.3862 25.432 26.6582 25.432C26.8982 25.432 27.0862 25.48 27.2222 25.576C27.3662 25.664 27.4982 25.82 27.6182 26.044L30.3902 31.108H29.9822L32.7542 26.044C32.8742 25.82 33.0022 25.664 33.1382 25.576C33.2822 25.48 33.4702 25.432 33.7022 25.432C33.9742 25.432 34.1822 25.508 34.3262 25.66C34.4782 25.812 34.5542 26.024 34.5542 26.296V33.244C34.5542 33.516 34.4822 33.728 34.3382 33.88C34.1942 34.032 33.9862 34.108 33.7142 34.108C33.4422 34.108 33.2302 34.032 33.0782 33.88C32.9342 33.728 32.8622 33.516 32.8622 33.244V28.384H33.1262L30.8942 32.38C30.7982 32.532 30.6942 32.648 30.5822 32.728C30.4782 32.8 30.3382 32.836 30.1622 32.836C29.9862 32.836 29.8422 32.796 29.7302 32.716C29.6182 32.636 29.5182 32.524 29.4302 32.38L27.1742 28.372H27.4622V33.244C27.4622 33.516 27.3902 33.728 27.2462 33.88C27.1102 34.032 26.9022 34.108 26.6222 34.108Z" fill="white"/>
<path d="M37.206 34.108C36.902 34.108 36.67 34.024 36.51 33.856C36.35 33.688 36.27 33.452 36.27 33.148V26.488C36.27 26.176 36.35 25.94 36.51 25.78C36.678 25.62 36.914 25.54 37.218 25.54H40.134C41.078 25.54 41.806 25.78 42.318 26.26C42.83 26.732 43.086 27.392 43.086 28.24C43.086 29.088 42.83 29.752 42.318 30.232C41.806 30.712 41.078 30.952 40.134 30.952H38.13V33.148C38.13 33.452 38.05 33.688 37.89 33.856C37.738 34.024 37.51 34.108 37.206 34.108ZM38.13 29.512H39.822C40.302 29.512 40.666 29.404 40.914 29.188C41.17 28.972 41.298 28.656 41.298 28.24C41.298 27.824 41.17 27.512 40.914 27.304C40.666 27.096 40.302 26.992 39.822 26.992H38.13V29.512Z" fill="white"/>
</g>
<defs>
<clipPath id="clip0_275_13916">
<rect width="60" height="60" fill="white"/>
</clipPath>
</defs>
</svg>
