<svg width="26" height="26" viewBox="0 0 26 26" fill="none" xmlns="http://www.w3.org/2000/svg">
<path d="M13 0.125C10.6562 0.157552 8.55664 0.727214 6.70117 1.83398C4.81315 2.94076 3.31576 4.43815 2.20898 6.32617C1.10221 8.18164 0.532552 10.2812 0.5 12.625C0.532552 14.9688 1.10221 17.0684 2.20898 18.9238C3.31576 20.8118 4.81315 22.3092 6.70117 23.416C8.55664 24.5228 10.6562 25.0924 13 25.125C15.3438 25.0924 17.4434 24.5228 19.2988 23.416C21.1868 22.3092 22.6842 20.8118 23.791 18.9238C24.8978 17.0684 25.4674 14.9688 25.5 12.625C25.4674 10.2812 24.8978 8.18164 23.791 6.32617C22.6842 4.43815 21.1868 2.94076 19.2988 1.83398C17.4434 0.727214 15.3438 0.157552 13 0.125ZM18.6641 10.4766L12.4141 16.7266C12.1211 16.987 11.7956 17.1172 11.4375 17.1172C11.0794 17.1172 10.7539 16.987 10.4609 16.7266L7.33594 13.6016C7.07552 13.3086 6.94531 12.9831 6.94531 12.625C6.94531 12.2669 7.07552 11.9414 7.33594 11.6484C7.62891 11.388 7.95443 11.2578 8.3125 11.2578C8.67057 11.2578 8.99609 11.388 9.28906 11.6484L11.4375 13.7969L16.7109 8.52344C17.0039 8.26302 17.3294 8.13281 17.6875 8.13281C18.0456 8.13281 18.3711 8.26302 18.6641 8.52344C18.9245 8.81641 19.0547 9.14193 19.0547 9.5C19.0547 9.85807 18.9245 10.1836 18.6641 10.4766Z" fill="#00BA53"/>
</svg>
