<svg width="41" height="44" viewBox="0 0 41 44" fill="none" xmlns="http://www.w3.org/2000/svg">
<path d="M29.2969 11.7969L18.2031 0.703125C17.7344 0.234375 17.1615 0 16.4844 0H5C3.59375 0.0520833 2.42188 0.546875 1.48438 1.48438C0.546875 2.42188 0.0520833 3.59375 0 5V35C0.0520833 36.4062 0.546875 37.5781 1.48438 38.5156C2.42188 39.4531 3.59375 39.9479 5 40H25C26.4062 39.9479 27.5781 39.4531 28.5156 38.5156C29.4531 37.5781 29.9479 36.4062 30 35V13.5156C30 12.8385 29.7656 12.2656 29.2969 11.7969ZM28.2031 12.4219H19.375C18.2292 12.3177 17.6042 11.6927 17.5 10.5469V1.79688L28.2031 12.4219ZM25 38.6719H5C3.95833 38.6719 3.07292 38.3073 2.34375 37.5781C1.66667 36.849 1.30208 35.9635 1.25 34.9219V4.92188C1.30208 3.88021 1.66667 2.99479 2.34375 2.26562C3.07292 1.58854 3.95833 1.22396 5 1.17188H16.25V10.4688C16.25 11.3542 16.5625 12.0833 17.1875 12.6562C17.7604 13.2812 18.4896 13.5938 19.375 13.5938H28.75V34.8438C28.6979 35.9896 28.3333 36.901 27.6562 37.5781C26.9271 38.3073 26.0417 38.6719 25 38.6719Z" fill="#3D3D3D"/>
<rect x="8" y="26" width="33" height="18" rx="9" fill="#00652D"/>
<path d="M17.86 31.86C18.7933 31.86 19.4733 32.0433 19.9 32.41C20.3267 32.7767 20.54 33.2933 20.54 33.96C20.54 34.2533 20.49 34.5367 20.39 34.81C20.2967 35.0767 20.14 35.3167 19.92 35.53C19.7 35.7433 19.4067 35.9133 19.04 36.04C18.6733 36.16 18.2233 36.22 17.69 36.22H16.87V39H15.97V31.86H17.86ZM17.78 32.63H16.87V35.45H17.59C18.0433 35.45 18.42 35.4033 18.72 35.31C19.02 35.21 19.2433 35.0533 19.39 34.84C19.5367 34.6267 19.61 34.3467 19.61 34C19.61 33.54 19.4633 33.1967 19.17 32.97C18.8767 32.7433 18.4133 32.63 17.78 32.63ZM27.7447 35.36C27.7447 36.16 27.5947 36.83 27.2947 37.37C27.0014 37.91 26.578 38.3167 26.0247 38.59C25.4714 38.8633 24.8014 39 24.0147 39H22.0247V31.86H24.2247C24.9447 31.86 25.568 31.9933 26.0947 32.26C26.6214 32.5267 27.028 32.92 27.3147 33.44C27.6014 33.9533 27.7447 34.5933 27.7447 35.36ZM26.7947 35.39C26.7947 34.7567 26.688 34.2367 26.4747 33.83C26.268 33.4233 25.9614 33.1233 25.5547 32.93C25.1547 32.73 24.668 32.63 24.0947 32.63H22.9247V38.23H23.8947C24.8614 38.23 25.5847 37.9933 26.0647 37.52C26.5514 37.04 26.7947 36.33 26.7947 35.39ZM30.2294 39H29.3294V31.86H33.3194V32.65H30.2294V35.18H33.1294V35.97H30.2294V39Z" fill="white"/>
</svg>
