<svg width="60" height="60" viewBox="0 0 60 60" fill="none" xmlns="http://www.w3.org/2000/svg">
<g clip-path="url(#clip0_245_6344)">
<path d="M23.6244 26.9259C24.0169 26.6404 24.1037 26.0908 23.8183 25.6982C23.533 25.3056 22.9834 25.2188 22.5906 25.5042C21.6862 26.1617 20.471 26.1617 19.5666 25.5042C18.6017 24.8526 17.6159 26.2096 18.533 26.9259C20.0557 28.033 22.1017 28.033 23.6244 26.9259Z" fill="#00652D"/>
<path d="M20.7845 23.9061H21.3704C22.5342 23.8658 22.5332 22.1884 21.3704 22.1484H20.7845C19.6208 22.1887 19.6218 23.8662 20.7845 23.9061Z" fill="#00652D"/>
<path d="M59.341 53.9587L58.2113 52.2584C57.9428 51.854 57.3972 51.7444 56.993 52.0127C56.5888 52.2813 56.4787 52.8268 56.7473 53.231L57.8772 54.9316C58.3192 55.5964 58.3581 56.4134 57.981 57.1167C57.6039 57.8203 56.902 58.2404 56.1036 58.2404H44.2907C43.4923 58.2404 42.7904 57.8203 42.4133 57.1167C42.0362 56.4133 42.0751 55.5964 42.5173 54.9314L47.5711 47.3267C47.9961 46.6876 48.2208 45.9435 48.2208 45.1749V44.211H52.1733V45.1749C52.1733 45.9435 52.3979 46.6876 52.8228 47.3264L54.4727 49.8095C54.7429 50.2169 55.2923 50.3216 55.691 50.0551C56.0953 49.7865 56.2052 49.241 55.9366 48.8368L54.2865 46.3535C54.0539 46.0037 53.9309 45.5963 53.9309 45.175V40.2301C54.4439 39.9088 54.7869 39.34 54.7869 38.6913V37.1055C54.7869 36.1039 53.9721 35.2892 52.9706 35.2892H47.4234C46.4218 35.2892 45.6071 36.1039 45.6071 37.1055V38.6913C45.6071 39.34 45.9499 39.9087 46.463 40.23V45.175C46.463 45.5961 46.34 46.0037 46.1072 46.3537L42.1554 52.3002V45.3017C42.1554 40.9656 39.0561 37.2774 34.7859 36.5321L31.5276 35.9631L31.4444 35.0927C31.3789 34.425 30.8975 33.8688 30.2458 33.7085L28.343 33.2423C27.9318 33.1413 27.5062 33.2069 27.1445 33.4267C27.0703 33.4718 27.0019 33.5235 26.9371 33.5788V31.1737C30.0177 29.3007 32.137 25.998 32.3683 22.1938C33.3412 22.1141 34.2464 21.6978 34.9467 20.9988C35.727 20.2185 36.1568 19.1813 36.1568 18.0783V10.9479C36.1165 9.78417 34.4391 9.78511 34.3991 10.9479V14.6998C33.7925 14.2722 33.0664 14.0036 32.2814 13.9552C31.6976 10.6282 28.7892 8.09127 25.2975 8.09127H16.8575C13.3658 8.09127 10.4574 10.6282 9.87362 13.9552C9.10492 14.0021 8.37734 14.2585 7.75687 14.6961V10.2552C7.75687 5.57072 11.5679 1.75966 16.2525 1.75966H32.5241C33.5579 1.75966 34.399 2.60019 34.399 3.63337V6.84646C34.4393 8.01018 36.1168 8.00924 36.1567 6.84646V3.63337C36.1567 1.631 34.5271 0.00195312 32.5241 0.00195312H16.2529C10.5992 0.00195312 5.99964 4.60152 5.99964 10.2552V18.0782C5.99964 20.2398 7.66946 22.0178 9.78726 22.1933C10.0186 25.9981 12.1381 29.3013 15.2194 31.1742V33.5794C15.1539 33.5234 15.0846 33.4711 15.0094 33.4257C14.648 33.2065 14.2228 33.1416 13.8126 33.242L11.9089 33.7085C11.256 33.8692 10.7749 34.4266 10.7119 35.0949L10.6288 35.963L7.36959 36.532C3.0993 37.2773 0 40.9655 0 45.3016V57.6606C0 58.9496 1.04876 59.9983 2.33775 59.9983H39.8179C40.5967 59.9983 41.2858 59.6141 41.7108 59.0269C42.4056 59.6483 43.3076 59.9983 44.2907 59.9983H56.1036C59.1626 60.053 61.0797 56.4751 59.341 53.9587ZM48.2209 42.4534V40.5076H52.1734V42.4534H48.2209ZM47.365 37.1055C47.365 37.0731 47.3913 37.0469 47.4236 37.0469H52.9708C53.0032 37.0469 53.0294 37.0731 53.0294 37.1055V38.6913C53.0294 38.7236 53.0032 38.7499 52.9708 38.7499H47.4236C47.3913 38.7499 47.365 38.7236 47.365 38.6913V37.1055ZM28.096 34.9912L29.707 35.386L30.4389 43.0449L28.0089 45.1686C27.6481 45.4817 27.4504 45.9351 27.4664 46.411L27.579 49.9638L24.6576 58.2406H22.4024L28.096 34.9912ZM21.0778 56.2596L17.4793 41.5626C19.7367 42.0235 22.42 42.0233 24.6772 41.5619L21.0778 56.2596ZM11.5231 20.621V15.7038H30.6328V20.621H24.7562C24.5828 20.621 24.4258 20.5184 24.3563 20.3596C24.0069 19.561 23.2178 19.0449 22.3461 19.0449H19.8097C18.9381 19.0449 18.149 19.5609 17.7995 20.3595C17.73 20.5182 17.573 20.6209 17.3995 20.6209L11.5231 20.621ZM34.3995 18.0782C34.3995 18.7117 34.1526 19.3075 33.7048 19.7553C33.343 20.1164 32.8853 20.3442 32.3905 20.4205V15.7353C33.5264 15.9118 34.3995 16.8935 34.3995 18.0782ZM16.8579 9.84886H25.298C27.8135 9.84886 29.9265 11.5994 30.4863 13.946H11.6695C12.2294 11.5994 14.3424 9.84886 16.8579 9.84886ZM7.75734 18.0782C7.75734 17.4431 8.00401 16.8471 8.45316 16.3988C8.8129 16.0383 9.26979 15.8109 9.76523 15.7347V20.4198C8.62987 20.243 7.75734 19.2618 7.75734 18.0782ZM11.5651 22.3787H17.3996C18.2714 22.3787 19.0603 21.8628 19.4098 21.0643C19.4794 20.9054 19.6364 20.8028 19.8098 20.8028H22.3462C22.5196 20.8028 22.6765 20.9054 22.7461 21.0643C23.0957 21.8628 23.8846 22.3787 24.7563 22.3787H30.5909C29.2434 33.8714 12.9082 33.863 11.5651 22.3787ZM21.0779 32.8125C22.5241 32.8125 23.9074 32.5393 25.1797 32.0426V34.6733C25.1797 35.3443 25.4651 35.9653 25.9415 36.3994L25.1475 39.6415C22.7384 40.318 19.4196 40.3185 17.0092 39.6424L16.215 36.3984C16.6916 35.9638 16.9771 35.3429 16.9771 34.6732V32.0428C18.2492 32.5394 19.6322 32.8125 21.0779 32.8125ZM12.4498 35.3857L14.0607 34.991L19.7533 58.2406H17.4982L14.5778 49.9637L14.6893 46.4127C14.7053 45.9353 14.5075 45.4818 14.1491 45.1707L11.7169 43.045L12.4498 35.3857ZM1.75771 57.6606V45.3016C1.75771 41.8216 4.24498 38.8617 7.6718 38.2635L10.4551 37.7775L9.95869 42.9638C9.90877 43.4673 10.1068 43.9691 10.4916 44.3088L12.9298 46.4396L12.8201 49.934C12.8123 50.1335 12.8426 50.3309 12.9094 50.518L15.6342 58.2406H11.3479L11.3521 49.6946C11.3523 49.2093 10.9591 48.8156 10.4737 48.8153C9.98846 48.8151 9.59461 49.2083 9.59438 49.6937L9.59016 58.2405H2.33775C2.01796 58.2406 1.75771 57.9804 1.75771 57.6606ZM39.8179 58.2406H32.5619L32.5661 49.695C32.5663 49.2095 32.173 48.8159 31.6877 48.8157C31.2024 48.8154 30.8086 49.2087 30.8084 49.6941L30.8041 58.2406H26.5214L29.25 50.5102C29.3128 50.327 29.342 50.1369 29.3367 49.9411L29.2257 46.4395L31.6669 44.306C32.0486 43.9691 32.2466 43.4674 32.197 42.967L31.701 37.7776L34.4836 38.2636C37.9104 38.8618 40.3977 41.8218 40.3977 45.3017V57.6607C40.3979 57.9804 40.1377 58.2406 39.8179 58.2406Z" fill="#00652D"/>
<path d="M53.3687 54.4896C52.715 54.9972 53.0815 56.0632 53.9088 56.0628C54.3227 56.0628 54.6881 55.7596 54.7701 55.355C54.9292 54.5699 53.9953 54.0066 53.3687 54.4896Z" fill="#00652D"/>
<path d="M50.1971 49.1526C50.5961 49.1526 50.9504 48.8722 51.0487 48.4867C51.2441 47.7209 50.3602 47.1091 49.7084 47.5424C48.9938 48.0217 49.3372 49.15 50.1971 49.1526Z" fill="#00652D"/>
<path d="M50.1984 53.5502C50.5824 53.5502 50.9304 53.2892 51.0403 52.9219C51.267 52.1645 50.4095 51.5113 49.7388 51.9216C48.9921 52.3836 49.3197 53.5472 50.1984 53.5502Z" fill="#00652D"/>
<path d="M48.6937 33.6228C49.1561 33.6228 49.5499 33.2494 49.5715 32.7872C49.6083 32.0038 48.6285 31.5675 48.0726 32.1228C47.5307 32.6641 47.9283 33.6228 48.6937 33.6228Z" fill="#00652D"/>
<path d="M51.656 30.879C52.0603 30.879 52.4199 30.591 52.5117 30.1982C52.6922 29.426 51.7828 28.8213 51.1399 29.2889C50.4586 29.7848 50.8132 30.8777 51.656 30.879Z" fill="#00652D"/>
<path d="M49.2333 27.0925C50.1151 27.0876 50.4417 25.9166 49.6848 25.4607C49.3381 25.2534 48.8805 25.3132 48.6001 25.6051C48.0743 26.1528 48.4753 27.0925 49.2333 27.0925Z" fill="#00652D"/>
<path d="M52.5189 23.808C52.9437 23.808 53.3148 23.4922 53.3855 23.0743C53.5168 22.2977 52.5951 21.7592 51.9786 22.2367C51.3313 22.7381 51.7017 23.808 52.5189 23.808Z" fill="#00652D"/>
<path d="M45.7762 54.3514C45.1438 54.8614 45.5226 55.9159 46.3343 55.9101C46.7494 55.9101 47.1129 55.6069 47.1957 55.2024C47.3577 54.41 46.4002 53.8435 45.7762 54.3514Z" fill="#00652D"/>
</g>
<defs>
<clipPath id="clip0_245_6344">
<rect width="60" height="60" fill="white"/>
</clipPath>
</defs>
</svg>
